<svg width="490" height="396" viewBox="0 0 490 396" fill="none" xmlns="http://www.w3.org/2000/svg">
<path d="M350.728 113.526L347.663 111.96L320.402 119.124L285.9 152.226L273.086 148.554L256.298 129.834C256.298 129.834 226.005 129.942 212.181 143.19C211.137 143.208 203.374 148.572 199.451 154.278C195.527 159.984 192.749 162.09 188.893 168.624C185.037 175.158 180.659 182.322 178.335 189.216C176.012 196.11 171.499 210.096 170.371 214.992C169.243 219.888 167.997 229.896 167.997 229.896L193.423 292.266H384.438L350.728 113.526Z" fill="white"/>
<path d="M252.711 284.094C253.688 284.094 254.664 284.094 255.658 284.094C255.742 284.256 255.826 284.418 255.91 284.58C255.254 285.138 254.614 285.768 253.907 286.254C244.309 293.04 235.351 300.636 228.059 310.212C225.214 313.938 222.941 318.168 220.415 322.164C220.347 322.272 220.263 322.38 220.263 322.488C220.23 323.73 219.741 325.476 220.314 326.088C220.903 326.736 222.671 326.682 223.665 326.25C226.174 325.134 228.531 323.658 230.939 322.29C232.033 321.66 233.094 320.958 234.172 320.292C234.29 320.418 234.408 320.526 234.525 320.652C233.919 321.642 233.279 322.614 232.741 323.64C230.737 327.474 228.699 331.29 226.864 335.196C226.51 335.97 226.628 337.77 227.083 338.022C227.891 338.49 229.322 338.562 230.114 338.076C233.263 336.24 236.327 334.206 239.291 332.064C241.648 330.372 243.837 328.392 246.093 326.556C246.531 326.214 246.986 325.908 247.441 325.584C247.558 325.692 247.676 325.8 247.794 325.908C246.986 327.564 246.093 329.184 245.386 330.894C244.595 332.748 243.787 334.638 243.349 336.6C243.147 337.482 243.568 338.796 244.14 339.516C244.477 339.93 245.841 339.876 246.447 339.498C249.495 337.608 252.458 335.556 255.405 333.504C256.988 332.406 258.503 331.2 260.356 330.318C259.867 331.722 259.362 333.126 258.891 334.548C258.689 335.178 258.47 335.844 258.419 336.51C258.285 338.688 259.345 339.588 261.198 338.688C264.986 336.852 268.809 335.052 272.429 332.874C280.074 328.284 287.584 323.46 295.851 320.22C302.637 317.556 309.591 315.738 316.731 314.568C329.006 312.57 341.366 311.904 353.742 311.544C366.152 311.166 378.579 310.914 390.989 310.5C396.259 310.32 401.546 309.996 406.632 308.196C413.249 305.856 418.25 301.32 422.157 295.308C423.386 293.418 424.497 291.456 425.524 289.44C426.08 288.36 426.686 288.126 427.764 288.288C430.172 288.666 432.597 289.044 435.038 289.134C436.705 289.206 438.423 288.972 440.022 288.504C440.915 288.252 441.908 287.406 442.363 286.542C445.124 281.268 446.775 275.508 447.886 269.622C448.391 266.976 448.492 264.24 448.728 261.54C449.098 256.95 447.381 253.188 444.535 249.948C443.34 248.598 442.077 247.266 440.645 246.24C439.281 245.25 438.759 244.134 438.759 242.406C438.726 230.112 436.857 218.07 434.264 206.118C431.199 192.006 427.158 178.236 421.483 165.078C415.186 150.462 407.255 137.034 395.636 126.468C387.217 118.8 377.653 113.634 366.623 111.672C358.238 110.178 349.936 110.412 341.702 112.41C334.866 114.066 328.131 116.19 321.328 118.044C320.637 118.224 319.695 118.116 319.105 117.738C315.788 115.56 312.387 113.472 309.356 110.898C307.924 109.674 306.965 107.586 306.241 105.678C303.9 99.5404 301.778 93.3124 299.556 87.1204C299.067 85.7704 299.993 85.6264 300.802 85.2304C303.53 83.9164 306.392 82.7824 308.918 81.0904C312.723 78.5344 315.603 75.0064 317.152 70.3444C320.132 61.4344 313.481 51.6244 304.742 52.1824C303.496 52.2544 302.267 52.6864 300.617 53.0284C300.751 50.7064 300.718 48.6184 301.037 46.5844C301.795 41.7244 303.311 37.0984 305.449 32.7244C309.777 23.8504 305.55 14.8324 298.697 10.4944C293.561 7.2544 288.24 7.1824 282.919 10.2244C282.465 10.4764 281.993 10.7104 281.454 10.9804C281.219 10.5664 280.932 10.2424 280.798 9.8464C279.013 4.5544 275.258 1.9984 270.375 0.4504C265.037 -1.2416 257.678 2.0164 254.799 7.1644C254.109 8.4064 254.125 9.0904 255.237 10.0624C257.712 12.2584 259.126 15.2824 260.12 18.5044C260.255 18.9544 259.901 19.5664 259.766 20.1064C259.362 19.7644 258.807 19.5124 258.554 19.0804C257.19 16.7224 256.281 13.9504 254.53 12.0244C249.512 6.5164 236.917 6.3184 232.505 17.2264C229.07 25.7044 231.292 36.1804 239.156 40.3024C239.644 40.5544 240.149 41.4544 240.149 42.0304C240.099 50.4184 240.082 58.8784 237.876 66.9784C236.714 71.2084 234.593 75.1504 232.808 79.1824C231.276 82.6744 229.743 86.1484 229.575 90.0904C229.272 97.4524 233.128 102.24 238.584 105.678C243.618 108.864 249.259 109.44 254.967 108.36C257.981 107.784 260.895 106.686 263.858 105.822C264.178 105.732 264.515 105.678 264.902 105.606C265.02 105.912 265.188 106.128 265.171 106.344C265.104 110.88 265.104 115.416 264.852 119.934C264.784 121.068 263.942 122.238 263.235 123.21C262.696 123.984 261.736 124.416 261.113 125.136C258.301 128.394 254.917 129.096 250.808 129.06C231.259 128.88 214.791 136.854 201.017 151.47C190.56 162.576 183.101 175.788 177.325 190.17C172.863 201.276 169.765 212.814 167.912 224.73C167.794 225.486 168.081 226.296 168.182 227.088C168.333 227.07 168.468 227.07 168.62 227.052C169.108 224.478 169.579 221.886 170.068 219.312C172.173 208.08 175.507 197.262 180.002 186.858C185.525 174.078 192.48 162.324 201.842 152.334C210.514 143.1 220.583 136.332 232.437 132.786C239.543 130.662 246.818 129.978 254.193 130.356C255.355 130.41 255.658 130.95 255.607 132.12C255.186 142.146 255.742 152.136 257.594 161.982C258.099 164.682 259.076 167.346 260.255 169.794C261.602 172.602 263.976 173.124 265.946 170.856C267.95 168.534 269.23 168.786 271.739 170.244C276.487 173.016 281.623 172.584 286.455 169.956C287.668 169.29 288.223 169.578 289.082 170.532C290.564 172.17 292.096 173.844 293.898 175.032C296.205 176.562 297.838 176.346 299.421 174.042C301.913 170.406 304.371 166.644 306.156 162.594C309.238 155.592 311.949 148.392 314.559 141.156C316.933 134.568 318.954 127.836 321.109 121.158C321.496 119.916 321.968 118.944 323.298 118.602C330.858 116.658 338.402 114.696 345.946 112.734C346.097 112.698 346.282 112.752 346.703 112.788C346.181 113.274 345.862 113.706 345.441 113.958C338.251 118.188 333.923 124.974 330.842 132.804C326.228 144.54 325.1 156.942 325.369 169.506C325.605 180.018 326.75 190.422 328.501 200.79C330.387 211.914 332.829 222.876 335.927 233.676C336.247 234.774 336.179 235.332 335.085 235.818C332.408 236.97 331.06 239.202 331.397 242.28C331.684 244.98 332.104 247.68 332.694 250.326C333.266 252.918 333.233 253.152 330.842 253.638C330.336 253.746 329.831 253.908 329.326 254.052C327.962 254.448 326.885 254.25 325.655 253.224C320.991 249.282 315.485 248.562 309.793 249.264C304.169 249.948 298.848 251.802 294.504 255.834C292.45 257.742 290.833 260.208 288.796 262.71M414.832 224.064C414.849 223.794 414.849 223.524 414.866 223.254C414.411 223.128 413.956 222.966 413.485 222.912C401.008 221.256 388.648 222.732 376.339 224.82C369.806 225.918 363.323 227.394 356.891 228.996C351.418 230.364 346.013 232.038 340.625 233.784C337.493 234.792 337.543 234.99 336.567 231.714C336.55 231.66 336.533 231.588 336.516 231.534C333.132 218.88 330.286 206.1 328.552 193.05C326.565 178.092 325.571 163.152 327.962 148.158C329.242 140.13 331.532 132.498 335.708 125.622C341.13 116.694 348.724 111.618 358.827 111.978C366.775 112.266 374.436 114.3 381.626 118.098C392.353 123.768 400.738 132.282 407.743 142.47C414.899 152.892 420.406 164.286 424.48 176.418C426.939 183.762 429.347 191.16 431.233 198.684C433.102 206.154 434.6 213.786 435.712 221.418C436.722 228.258 436.991 235.242 437.564 242.154C437.598 242.604 437.446 243.072 437.362 243.666C436.773 243.45 436.352 243.288 435.914 243.144C430.626 241.326 425.39 239.274 420.035 237.744C408.703 234.504 397.067 233.352 385.398 232.722C373.426 232.074 361.454 232.056 349.515 233.316C348.909 233.388 348.286 233.244 347.663 233.208C358.625 229.446 369.755 227.016 381.003 225.27C392.218 223.542 403.5 223.074 414.832 224.064ZM275.46 313.704C275.325 313.524 275.19 313.344 275.039 313.146C274.517 313.524 273.927 313.83 273.49 314.28C268.674 319.212 264.077 324.414 258.992 329.022C255.27 332.406 250.943 335.07 246.834 337.968C246.245 338.382 245.336 338.238 244.561 338.346C244.561 337.518 244.359 336.6 244.612 335.862C246.767 329.796 249.697 324.126 253.57 319.158C256.314 315.648 259.665 312.696 262.73 309.492C263.168 309.042 263.521 308.502 263.909 308.016C263.774 307.854 263.622 307.692 263.488 307.53C262.999 307.872 262.444 308.142 262.023 308.574C259.581 310.95 257.106 313.308 254.748 315.792C253.065 317.574 251.785 319.86 249.949 321.426C244.645 325.962 239.19 330.282 233.717 334.584C232.336 335.664 230.703 336.456 229.087 337.086C227.79 337.608 227.285 336.96 227.807 335.574C228.43 333.918 229.103 332.244 229.945 330.696C235.637 320.274 242.406 310.788 251.246 303.138C251.768 302.688 252.189 302.076 252.66 301.536C252.543 301.374 252.425 301.23 252.29 301.068C251.785 301.356 251.196 301.554 250.791 301.968C246.935 305.91 243.113 309.888 239.291 313.884C238.55 314.658 238.011 315.738 237.152 316.296C232.825 319.176 228.447 321.984 224.018 324.666C223.227 325.152 222.065 324.972 221.088 325.098C221.29 324.054 221.24 322.83 221.762 322.02C224.894 317.268 227.857 312.336 231.444 307.98C238.348 299.574 246.599 292.806 255.371 286.758C265.205 279.99 275.561 274.284 286.388 269.586C287.23 269.226 288.038 268.704 288.274 270.306C288.745 273.654 290.581 276.084 293.107 277.956C295.733 279.9 298.646 280.926 301.829 281.34C311.612 282.6 320.301 280.332 327.221 272.466C330.808 268.398 332.542 261.792 329.057 256.788C328.097 255.42 329.276 255.258 330.134 255.078C339.16 253.224 348.236 251.928 357.463 251.91C366.506 251.874 375.48 252.594 384.27 254.826C390.349 256.374 396.394 258.192 402.321 260.316C411.481 263.592 420.22 267.876 428.134 273.906C429.195 274.716 429.414 275.544 428.976 276.75C427.629 280.368 426.501 284.112 424.918 287.622C419.042 300.672 409.814 308.556 395.737 308.952C383.024 309.312 370.311 309.834 357.598 310.284C350.172 310.554 342.73 310.824 335.304 311.148C332.829 311.256 332.778 311.346 332.458 308.79C331.246 298.674 329.006 288.81 326.043 279.108C325.521 277.38 325.032 277.38 323.803 278.28C319.745 281.214 315.283 283.014 310.366 283.464C308.025 283.68 305.685 283.824 303.226 284.022C303.429 284.76 303.546 285.354 303.748 285.93C306.83 294.48 308.935 303.282 310.13 312.336C310.332 313.848 310.063 314.514 308.514 314.874C301.139 316.62 293.915 319.014 287.213 322.794C279.215 327.312 271.368 332.154 263.437 336.798C262.208 337.518 260.709 338.706 259.463 337.356C258.352 336.132 259.463 334.674 260.086 333.468C263.757 326.466 268.657 320.526 274.214 315.18C274.702 314.73 275.056 314.19 275.46 313.704ZM292.702 84.2224C292.652 84.5104 292.618 84.7804 292.568 85.0684C293.746 85.2844 294.942 85.7164 296.121 85.6984C297.552 85.6804 298.158 86.3644 298.63 87.6784C301.223 94.9144 303.883 102.096 306.443 109.332C306.712 110.106 306.83 111.204 306.544 111.906C304.422 117 302.452 122.184 299.909 127.026C296.76 133.02 292.787 138.384 287.129 142.002C283.088 144.594 278.794 145.332 274.247 143.856C269.415 142.29 267.781 137.952 266.653 133.344C265.34 128.016 265.828 122.598 266.451 117.234C266.535 116.55 267.209 115.74 267.815 115.38C272.547 112.608 276.167 108.846 277.48 103.086C278.002 100.782 278.322 98.3884 276.958 96.0844C276.588 96.3004 276.369 96.3904 276.218 96.5344C270.257 102.096 263.336 105.624 255.574 107.028C249.747 108.09 243.921 107.73 238.718 104.292C233.818 101.034 229.575 95.5804 231.141 88.1284C231.781 85.0864 232.993 82.1344 234.256 79.2904C236.327 74.6464 238.903 70.2184 239.729 65.0704C240.368 61.1104 240.655 57.0784 241.076 53.0824C241.598 48.1324 241.598 48.1324 246.161 47.0344C250.135 46.0804 250.354 45.5224 248.08 42.1204C248.064 42.0844 248.097 42.0124 248.165 41.6884C251.785 41.5084 255.439 41.4904 259.278 42.7684C258.554 43.2364 258.099 43.5064 257.662 43.7944C255.523 45.2164 255.574 46.9804 257.779 48.2764C258.958 48.9604 260.154 49.5724 261.299 50.2924C263.555 51.6964 265.71 53.2624 268.017 54.5584C269.836 55.5844 270.998 54.6664 270.812 52.5064C270.711 51.2464 270.341 50.0224 270.105 48.7624C270.829 48.9064 271.301 49.2304 271.637 49.6804C273.288 51.7684 275.089 53.7484 276.487 55.9984C278.474 59.2024 280.074 62.6584 281.976 65.9164C283.761 68.9764 285.647 69.2824 288.105 66.8344C290.109 64.8544 291.793 62.5324 293.763 60.5164C295.565 58.6804 297.367 56.7544 299.488 55.4224C303.715 52.7224 308.126 52.4884 312.168 55.9624C315.956 59.2384 317.455 63.4864 316.361 68.7064C315.603 72.3244 313.7 75.1684 311.208 77.5624C306.325 82.2244 300.886 85.3744 293.999 84.1504C293.578 84.0964 293.123 84.2044 292.702 84.2224ZM442.464 284.562C440.73 282.78 439.568 281.412 438.237 280.26C428.488 271.8 417.863 264.942 406.042 260.298C396.141 256.41 386.072 253.296 375.548 251.874C366.118 250.596 356.706 250.056 347.242 251.19C343.622 251.622 340.002 252.162 336.381 252.702C335.102 252.9 334.31 252.72 334.058 251.118C333.687 248.742 333.014 246.42 332.643 244.044C331.919 239.454 333.485 236.88 337.813 236.322C345.643 235.296 353.489 234.27 361.37 233.82C376.491 232.956 391.561 233.91 406.547 236.232C414.781 237.51 422.864 239.346 430.728 242.298C435.56 244.116 440.006 246.528 443.542 250.596C446.135 253.566 447.515 256.95 447.532 261.162C447.549 264.924 447.229 268.614 446.303 272.196C445.225 276.21 443.845 280.134 442.464 284.562ZM308.143 111.708C312.05 114.426 315.839 117.018 319.577 119.718C319.897 119.952 320.031 120.942 319.88 121.446C317.96 127.53 316.125 133.668 313.953 139.662C311.141 147.384 308.177 155.07 304.978 162.63C303.479 166.158 301.425 169.452 299.337 172.638C297.687 175.14 295.801 175.284 293.477 173.448C292.281 172.494 291.187 171.342 290.261 170.082C285.496 163.548 282.515 156.006 279.855 148.32C279.063 146.034 279.097 145.962 281.37 145.602C284.805 145.062 287.752 143.388 290.412 141.138C296.727 135.81 300.852 128.736 304.287 121.14C305.634 118.116 306.796 115.02 308.143 111.708ZM305.213 276.246C302.991 275.886 300.684 275.796 298.562 275.094C296.558 274.428 294.538 273.366 292.921 271.962C289.2 268.74 289.453 263.304 293.275 258.822C299.64 251.352 313.01 248.184 321.766 252.09C326.699 254.286 329.107 258.822 327.188 263.43C326.177 265.86 324.342 268.164 322.389 269.856C317.455 274.104 311.578 275.904 305.213 276.246ZM264.06 124.254C264.212 124.362 264.38 124.47 264.532 124.596C264.565 125.136 264.565 125.676 264.633 126.216C265.087 129.384 265.273 132.66 266.081 135.72C267.411 140.706 270.156 144.486 275.342 145.404C276.655 145.638 276.554 146.484 276.201 147.474C274.87 151.164 273.742 154.98 272.126 158.526C270.459 162.18 268.522 165.744 266.317 169.056C264.431 171.864 262.174 171.522 260.895 168.354C259.783 165.6 258.891 162.648 258.419 159.678C256.954 150.606 256.601 141.408 256.904 132.21C256.921 131.544 256.954 130.644 257.325 130.284C259.497 128.196 261.804 126.252 264.06 124.254ZM430.643 275.994C434.23 278.334 437.396 280.674 439.921 283.878C441.656 286.074 441.252 287.226 438.625 287.73C438.052 287.838 437.463 287.892 436.89 287.856C434.011 287.64 431.132 287.37 428.235 287.136C427.006 287.046 426.989 286.344 427.36 285.354C428.151 283.23 428.926 281.106 429.684 278.964C430.003 278.046 430.273 277.128 430.643 275.994Z" fill="black"/>
<path d="M228.43 178.956C228.161 179.352 227.807 179.712 227.622 180.144C224.574 187.2 222.402 194.58 220.6 202.086C217.99 212.976 216.289 224.064 215.262 235.242C214.1 247.788 213.393 260.37 214.185 273.006C214.387 276.228 214.622 279.45 214.875 282.654C214.925 283.23 215.195 283.788 215.633 284.328C213.629 248.346 216.256 213.084 228.952 179.28C228.767 179.154 228.598 179.064 228.43 178.956Z" fill="black"/>
<path d="M414.832 224.064C403.5 223.074 392.218 223.542 381.003 225.288C369.755 227.034 358.625 229.464 347.663 233.226C348.286 233.262 348.909 233.388 349.515 233.334C361.471 232.074 373.443 232.074 385.398 232.74C397.067 233.388 408.703 234.522 420.035 237.762C425.39 239.292 430.626 241.344 435.914 243.162C436.335 243.306 436.772 243.468 437.362 243.684C437.446 243.09 437.614 242.622 437.564 242.172C436.991 235.26 436.722 228.276 435.712 221.436C434.6 213.786 433.102 206.172 431.233 198.702C429.347 191.178 426.939 183.78 424.48 176.436C420.405 164.286 414.899 152.91 407.743 142.488C400.738 132.282 392.336 123.786 381.626 118.116C374.436 114.318 366.775 112.284 358.827 111.996C348.724 111.636 341.13 116.73 335.708 125.64C331.532 132.516 329.242 140.148 327.962 148.176C325.554 163.188 326.565 178.128 328.552 193.068C330.286 206.118 333.115 218.898 336.516 231.552C336.533 231.606 336.55 231.678 336.567 231.732C337.543 235.008 337.493 234.81 340.625 233.802C345.996 232.056 351.418 230.364 356.891 229.014C363.323 227.412 369.806 225.936 376.339 224.838C388.648 222.75 401.008 221.274 413.485 222.93C413.956 222.984 414.411 223.164 414.866 223.272C414.849 223.524 414.849 223.794 414.832 224.064Z" fill="white"/>
<path d="M275.46 313.704C275.056 314.19 274.719 314.748 274.264 315.18C268.708 320.526 263.808 326.466 260.137 333.468C259.514 334.674 258.402 336.132 259.514 337.356C260.76 338.724 262.258 337.518 263.488 336.798C271.419 332.154 279.265 327.33 287.264 322.794C293.965 318.996 301.172 316.62 308.564 314.874C310.113 314.514 310.383 313.848 310.181 312.336C308.985 303.264 306.88 294.462 303.799 285.93C303.597 285.372 303.479 284.76 303.277 284.022C305.752 283.824 308.093 283.68 310.417 283.464C315.317 283.014 319.796 281.214 323.854 278.28C325.083 277.38 325.571 277.38 326.093 279.108C329.04 288.81 331.279 298.674 332.509 308.79C332.812 311.346 332.879 311.256 335.354 311.148C342.78 310.824 350.223 310.554 357.648 310.284C370.362 309.816 383.075 309.294 395.788 308.952C409.865 308.556 419.092 300.672 424.969 287.622C426.552 284.112 427.68 280.386 429.027 276.75C429.465 275.562 429.246 274.716 428.185 273.906C420.271 267.876 411.532 263.574 402.372 260.316C396.444 258.21 390.399 256.392 384.321 254.826C375.531 252.576 366.556 251.874 357.514 251.91C348.286 251.946 339.21 253.224 330.185 255.078C329.326 255.258 328.147 255.42 329.107 256.788C332.593 261.774 330.858 268.398 327.272 272.466C320.351 280.332 311.663 282.618 301.879 281.34C298.697 280.926 295.767 279.9 293.157 277.956C290.631 276.084 288.813 273.654 288.324 270.306C288.089 268.704 287.28 269.226 286.439 269.586C275.611 274.302 265.273 280.008 255.422 286.758C246.632 292.788 238.381 299.574 231.495 307.98C227.925 312.336 224.944 317.268 221.812 322.02C221.29 322.812 221.341 324.054 221.139 325.098C222.132 324.972 223.277 325.152 224.069 324.666C228.497 321.984 232.875 319.176 237.203 316.296C238.062 315.738 238.6 314.658 239.341 313.884C243.164 309.888 246.986 305.91 250.842 301.968C251.246 301.554 251.835 301.374 252.341 301.068C252.458 301.23 252.576 301.374 252.711 301.536C252.24 302.076 251.835 302.688 251.297 303.138C242.456 310.788 235.687 320.274 229.996 330.696C229.154 332.244 228.48 333.9 227.857 335.574C227.335 336.96 227.841 337.608 229.137 337.086C230.754 336.456 232.387 335.664 233.768 334.584C239.24 330.3 244.696 325.962 250 321.426C251.835 319.86 253.115 317.592 254.799 315.792C257.14 313.308 259.615 310.95 262.073 308.574C262.494 308.16 263.05 307.872 263.538 307.53C263.673 307.692 263.824 307.854 263.959 308.016C263.572 308.502 263.201 309.042 262.78 309.492C259.716 312.696 256.348 315.648 253.62 319.158C249.747 324.126 246.818 329.796 244.662 335.862C244.41 336.6 244.612 337.518 244.612 338.346C245.369 338.238 246.296 338.382 246.885 337.968C250.994 335.07 255.321 332.424 259.042 329.022C264.111 324.414 268.708 319.212 273.54 314.28C273.995 313.83 274.567 313.524 275.089 313.146C275.174 313.326 275.308 313.524 275.46 313.704Z" fill="white"/>
<path d="M292.702 84.2224C293.14 84.2044 293.578 84.0964 293.982 84.1684C300.869 85.3924 306.308 82.2424 311.191 77.5804C313.7 75.1864 315.586 72.3424 316.344 68.7244C317.438 63.5044 315.94 59.2564 312.151 55.9804C308.126 52.5064 303.715 52.7404 299.472 55.4404C297.367 56.7904 295.548 58.7164 293.746 60.5344C291.776 62.5504 290.076 64.8724 288.089 66.8524C285.63 69.3004 283.744 68.9764 281.959 65.9344C280.057 62.6764 278.457 59.2024 276.47 56.0164C275.073 53.7484 273.271 51.7684 271.621 49.6984C271.267 49.2664 270.796 48.9424 270.088 48.7804C270.324 50.0224 270.695 51.2644 270.796 52.5244C270.981 54.6844 269.819 55.6024 268 54.5764C265.694 53.2984 263.521 51.7144 261.282 50.3104C260.137 49.5904 258.924 48.9784 257.763 48.2944C255.54 46.9984 255.506 45.2344 257.645 43.8124C258.082 43.5244 258.537 43.2544 259.261 42.7864C255.422 41.5084 251.768 41.5264 248.148 41.7064C248.08 42.0304 248.047 42.1024 248.064 42.1384C250.337 45.5404 250.118 46.1164 246.144 47.0524C241.564 48.1504 241.581 48.1504 241.059 53.1004C240.638 57.0964 240.335 61.1284 239.712 65.0884C238.887 70.2364 236.293 74.6644 234.239 79.3084C232.976 82.1524 231.764 85.1044 231.124 88.1464C229.575 95.5984 233.801 101.052 238.701 104.31C243.904 107.766 249.731 108.126 255.557 107.046C263.302 105.624 270.24 102.114 276.201 96.5524C276.369 96.4084 276.588 96.3184 276.942 96.1024C278.306 98.4064 277.986 100.8 277.464 103.104C276.15 108.882 272.513 112.626 267.798 115.398C267.192 115.758 266.519 116.568 266.434 117.252C265.811 122.616 265.323 128.034 266.636 133.362C267.765 137.97 269.398 142.29 274.231 143.874C278.777 145.35 283.071 144.612 287.112 142.02C292.77 138.402 296.744 133.038 299.892 127.044C302.435 122.202 304.422 117.018 306.527 111.924C306.83 111.204 306.695 110.124 306.426 109.35C303.85 102.114 301.189 94.9144 298.613 87.6964C298.141 86.3824 297.518 85.6984 296.104 85.7164C294.925 85.7344 293.73 85.3204 292.551 85.0864C292.618 84.7804 292.652 84.5104 292.702 84.2224ZM267.815 59.7784C267.883 60.0484 267.95 60.3184 268.017 60.5884C266.687 61.1284 265.374 61.8844 263.993 62.1904C261.147 62.8204 258.335 62.5684 255.776 60.9664C254.58 60.2104 254.513 58.5364 255.338 56.8444C256.062 55.3684 256.971 55.9264 257.965 56.3944C258.807 56.8084 259.682 57.1504 260.558 57.4384C262.966 58.2484 265.39 59.0044 267.815 59.7784ZM247.659 60.2464C246.717 60.1384 246.279 60.0844 245.841 60.0304C244.123 59.8324 242.759 58.9684 241.833 57.4024C241.092 56.1784 241.396 55.6384 242.759 55.5664C244.258 55.4764 245.757 55.3504 247.255 55.2244C249.865 55.0264 250.724 56.2684 249.461 58.7344C248.586 60.4444 247.457 62.0464 246.312 63.5944C244.679 65.7904 244.662 66.3304 246.514 68.2384C246.834 68.5624 247.104 68.9584 247.676 69.6604C244.342 68.6524 243.382 65.9884 245.1 63.5944C245.824 62.5504 246.632 61.5604 247.659 60.2464ZM308.244 61.9384C308.312 62.1904 308.396 62.4424 308.463 62.6764C307.992 62.8564 307.537 63.1804 307.066 63.2164C301.442 63.6304 297.939 66.9604 295.851 72.3244C295.565 73.0444 295.144 73.7104 294.79 74.3944C294.572 74.2504 294.336 74.1244 294.117 73.9804C294.807 70.4344 296.491 67.4284 299.185 65.1244C301.846 62.8564 304.86 61.6324 308.244 61.9384ZM245.689 78.3724C250.977 80.9464 254.361 78.7864 256.634 73.4404C257.072 77.5804 254.833 80.6584 251.347 81.1624C248.316 81.5944 245.976 80.5504 245.689 78.3724Z" fill="white"/>
<path d="M442.464 284.562C443.845 280.134 445.225 276.21 446.269 272.196C447.212 268.614 447.515 264.942 447.499 261.162C447.482 256.95 446.101 253.566 443.508 250.596C439.972 246.528 435.526 244.116 430.694 242.298C422.83 239.346 414.748 237.528 406.514 236.232C391.527 233.892 376.457 232.956 361.336 233.82C353.472 234.27 345.609 235.296 337.779 236.322C333.468 236.88 331.886 239.454 332.61 244.044C332.98 246.42 333.654 248.742 334.024 251.118C334.277 252.72 335.068 252.9 336.348 252.702C339.968 252.144 343.588 251.622 347.209 251.19C356.672 250.056 366.084 250.596 375.514 251.874C386.038 253.296 396.108 256.41 406.009 260.298C417.829 264.942 428.454 271.782 438.204 280.26C439.568 281.412 440.73 282.78 442.464 284.562Z" fill="white"/>
<path d="M308.143 111.708C306.796 115.02 305.634 118.116 304.27 121.104C300.835 128.7 296.693 135.774 290.396 141.102C287.718 143.352 284.788 145.026 281.353 145.566C279.08 145.926 279.046 145.998 279.838 148.284C282.498 155.988 285.479 163.512 290.244 170.046C291.153 171.306 292.265 172.458 293.46 173.412C295.784 175.266 297.67 175.122 299.32 172.602C301.408 169.416 303.462 166.122 304.961 162.594C308.16 155.034 311.124 147.366 313.936 139.626C316.125 133.632 317.943 127.494 319.863 121.41C320.014 120.906 319.897 119.934 319.56 119.682C315.838 117.036 312.05 114.426 308.143 111.708Z" fill="white"/>
<path d="M305.213 276.246C311.578 275.886 317.438 274.104 322.389 269.856C324.359 268.164 326.177 265.86 327.188 263.43C329.107 258.84 326.699 254.286 321.766 252.09C312.993 248.184 299.623 251.352 293.275 258.822C289.453 263.304 289.2 268.74 292.921 271.962C294.538 273.366 296.558 274.41 298.562 275.094C300.684 275.814 302.991 275.886 305.213 276.246ZM307.705 260.874C308.143 260.478 308.632 259.758 309.255 259.542C312.42 258.372 315.636 257.292 318.853 256.266C319.341 256.122 319.947 256.446 320.503 256.554C320.132 257.058 319.863 257.832 319.391 258.012C316.68 259.074 313.919 260.046 311.174 260.964C310.181 261.288 309.861 261.792 310.214 262.872C310.753 264.51 311.242 266.166 311.629 267.84C311.713 268.236 311.309 268.74 311.141 269.208C310.77 268.992 310.164 268.866 310.063 268.542C309.255 266.148 308.564 263.718 307.705 260.874Z" fill="white"/>
<path d="M264.06 124.254C261.804 126.252 259.514 128.196 257.325 130.266C256.938 130.626 256.921 131.526 256.904 132.192C256.601 141.39 256.954 150.57 258.419 159.66C258.891 162.612 259.783 165.564 260.895 168.336C262.174 171.504 264.431 171.846 266.317 169.038C268.539 165.744 270.459 162.162 272.126 158.508C273.742 154.962 274.87 151.146 276.201 147.456C276.554 146.484 276.655 145.62 275.342 145.386C270.156 144.468 267.411 140.706 266.081 135.702C265.273 132.642 265.087 129.384 264.633 126.198C264.549 125.658 264.565 125.118 264.532 124.578C264.363 124.488 264.212 124.362 264.06 124.254Z" fill="white"/>
<path d="M430.643 275.994C430.273 277.128 430.003 278.046 429.7 278.928C428.943 281.07 428.185 283.194 427.377 285.318C427.006 286.326 427.023 287.01 428.252 287.1C431.132 287.334 434.011 287.604 436.907 287.82C437.48 287.856 438.069 287.802 438.642 287.694C441.268 287.19 441.673 286.038 439.938 283.842C437.379 280.674 434.213 278.334 430.643 275.994Z" fill="white"/>
<path d="M267.815 59.7784C265.39 59.0044 262.966 58.2484 260.558 57.4564C259.682 57.1684 258.807 56.8084 257.965 56.4124C256.971 55.9264 256.062 55.3864 255.338 56.8624C254.496 58.5544 254.58 60.2464 255.776 60.9844C258.335 62.5864 261.164 62.8384 263.993 62.2084C265.374 61.9024 266.67 61.1464 268.017 60.6064C267.95 60.3184 267.883 60.0484 267.815 59.7784Z" fill="black"/>
<path d="M247.659 60.2464C246.649 61.5604 245.841 62.5504 245.1 63.5944C243.399 65.9884 244.342 68.6524 247.676 69.6604C247.104 68.9584 246.834 68.5624 246.514 68.2384C244.662 66.3484 244.679 65.7904 246.312 63.5944C247.457 62.0464 248.586 60.4624 249.461 58.7344C250.724 56.2684 249.865 55.0264 247.255 55.2244C245.757 55.3504 244.258 55.4764 242.759 55.5664C241.412 55.6384 241.109 56.1784 241.833 57.4024C242.759 58.9684 244.107 59.8324 245.841 60.0304C246.279 60.0844 246.717 60.1204 247.659 60.2464Z" fill="black"/>
<path d="M308.244 61.9384C304.86 61.6324 301.846 62.8564 299.185 65.1244C296.491 67.4284 294.807 70.4344 294.117 73.9804C294.336 74.1244 294.572 74.2504 294.79 74.3944C295.144 73.7104 295.565 73.0444 295.851 72.3244C297.939 66.9604 301.442 63.6304 307.066 63.2164C307.537 63.1804 308.009 62.8744 308.463 62.6764C308.396 62.4424 308.312 62.1904 308.244 61.9384Z" fill="black"/>
<path d="M245.689 78.3724C245.959 80.5504 248.316 81.5944 251.364 81.1624C254.833 80.6584 257.072 77.5804 256.651 73.4404C254.361 78.7864 250.977 80.9464 245.689 78.3724Z" fill="black"/>
<path d="M307.706 260.874C308.564 263.718 309.255 266.148 310.046 268.542C310.147 268.866 310.753 268.992 311.124 269.208C311.292 268.758 311.696 268.236 311.612 267.84C311.225 266.166 310.736 264.51 310.198 262.872C309.844 261.792 310.164 261.288 311.157 260.964C313.919 260.046 316.664 259.074 319.375 258.012C319.846 257.832 320.116 257.058 320.486 256.554C319.93 256.446 319.324 256.122 318.836 256.266C315.62 257.292 312.42 258.372 309.238 259.542C308.632 259.758 308.16 260.478 307.706 260.874Z" fill="black"/>
<path d="M281.673 173.646C281.673 173.646 280.006 249.264 290.278 267.642C290.278 267.642 265.542 276.354 256.651 284.562H248.956C248.956 284.562 242.625 239.418 270.981 171.864C270.964 171.864 274.433 175.572 281.673 173.646Z" fill="black"/>
<path d="M150.821 185.832L194.433 292.284H85.4543L41.3374 188.082C40.2261 185.472 41.9942 182.52 44.6715 182.484L144.524 181.458C147.252 181.44 149.727 183.15 150.821 185.832Z" fill="#C4C4C4"/>
<path d="M256.634 284.562L194.433 284.364L197.599 292.266H245.908L256.634 284.562Z" fill="#C4C4C4"/>
<path d="M207.331 289.8H215.279C216.054 289.8 216.66 289.134 216.66 288.324C216.66 287.496 216.037 286.848 215.279 286.848H207.331C206.557 286.848 205.951 287.514 205.951 288.324C205.934 289.134 206.557 289.8 207.331 289.8Z" fill="white"/>
<path d="M202.01 290.07C201.108 290.07 200.377 289.289 200.377 288.324C200.377 287.36 201.108 286.578 202.01 286.578C202.912 286.578 203.644 287.36 203.644 288.324C203.644 289.289 202.912 290.07 202.01 290.07Z" fill="white"/>
<path d="M80.4532 253.944C82.5749 251.658 82.5917 250.362 80.3354 248.184C76.6477 244.62 72.1182 242.64 67.5381 240.822C65.4165 239.976 63.2948 239.256 60.9374 239.958C56.3237 241.344 54.7072 247.212 58.0917 250.866C59.001 251.838 59.2367 252.504 58.6979 253.836C57.7213 256.248 58.58 259.056 60.769 260.946C61.9309 261.954 63.2779 262.71 64.5408 263.574C62.9243 268.704 64.2041 271.584 68.9694 273.672C69.3398 273.834 69.7776 274.356 69.8281 274.77C70.2659 278.1 72.034 280.422 75.0817 281.034C80.0828 282.06 84.8986 281.34 89.4618 278.838C89.6134 278.748 89.7649 278.658 89.9164 278.55C91.112 277.578 92.5938 276.696 92.1728 274.734C91.7855 272.898 90.1353 272.736 88.7883 272.232C88.3168 272.07 87.8116 272.034 87.0034 271.89C87.559 271.332 87.9127 270.954 88.2663 270.612C90.0175 268.956 89.9501 266.976 87.8622 265.788C86.3467 264.942 84.5955 264.564 82.9622 263.988C82.6591 263.88 82.3391 263.808 81.7329 263.646C83.2316 262.944 84.4776 262.494 85.6058 261.81C87.7106 260.532 87.9127 258.822 85.9594 257.292C84.2924 256.014 82.356 255.096 80.4532 253.944ZM71.5793 253.332C68.1948 252.864 65.2986 252.594 62.4529 252.036C59.1357 251.388 56.8794 248.148 57.5866 245.286C58.4453 241.794 61.2574 240.21 64.7934 241.308C66.4604 241.83 68.178 242.298 69.6934 243.144C73.0611 245.052 76.3278 247.122 79.5608 249.264C80.1333 249.642 80.7563 250.92 80.5542 251.388C80.2848 252.054 79.2745 252.648 78.5336 252.756C76.0752 253.098 73.5831 253.188 71.5793 253.332ZM74.5429 263.268C74.5092 263.106 74.4924 262.926 74.4587 262.764C72.7243 262.764 70.9731 262.836 69.2388 262.746C66.6793 262.602 64.0357 262.332 62.0824 260.334C61.0048 259.236 60.0955 257.742 59.5735 256.248C58.9842 254.52 60.2807 253.008 61.6783 253.17C65.8879 253.656 70.0807 254.232 74.3072 254.394C78.0285 254.538 81.3288 255.834 84.4776 257.76C85.067 258.12 85.8752 259.038 85.7742 259.47C85.6226 260.136 84.8144 260.91 84.1577 261.09C80.992 261.9 77.7591 262.548 74.5429 263.268ZM74.3745 273.132C74.3408 272.97 74.324 272.826 74.2903 272.664C73.2463 272.664 72.2023 272.736 71.1584 272.646C68.7841 272.43 66.6625 271.53 65.5848 269.136C65.1134 268.092 64.8945 266.454 65.3659 265.536C65.7701 264.744 67.2518 264.42 68.3295 264.204C69.2051 264.024 70.1649 264.294 71.091 264.348C75.991 264.69 80.9752 264.456 85.7068 266.202C86.6161 266.544 87.3233 267.552 88.1147 268.254C87.4243 269.01 86.734 269.784 86.0267 270.504C85.8752 270.666 85.6058 270.702 85.3869 270.756C81.7161 271.584 78.0453 272.358 74.3745 273.132ZM84.6797 273.132C85.8247 273.276 87.2391 273.33 88.5862 273.69C89.3944 273.906 90.1017 274.626 90.8425 275.112C90.3374 275.868 89.967 276.894 89.2766 277.326C85.589 279.702 81.4635 280.476 77.2371 280.188C75.0986 280.044 73.0106 279.216 71.6972 277.146C70.7206 275.598 71.091 274.284 72.6402 274.14C76.5635 273.744 80.5037 273.474 84.6797 273.132Z" fill="black"/>
<path d="M71.5794 253.332C73.5832 253.188 76.0753 253.098 78.5506 252.774C79.3083 252.666 80.3018 252.072 80.5712 251.406C80.7733 250.92 80.1502 249.66 79.5777 249.282C76.3447 247.14 73.0781 245.052 69.7104 243.162C68.1949 242.298 66.4605 241.848 64.8104 241.326C61.2743 240.228 58.4622 241.812 57.6035 245.304C56.8963 248.148 59.1358 251.406 62.4698 252.054C65.2987 252.594 68.1949 252.864 71.5794 253.332Z" fill="white"/>
<path d="M74.5431 263.268C77.7592 262.548 80.9922 261.918 84.1747 261.072C84.8314 260.91 85.6396 260.118 85.7912 259.452C85.8922 259.002 85.084 258.084 84.4946 257.742C81.3458 255.834 78.0455 254.538 74.3241 254.376C70.0977 254.196 65.9049 253.62 61.6953 253.152C60.2977 252.99 59.0011 254.502 59.5905 256.23C60.0956 257.724 61.0217 259.2 62.0994 260.316C64.0527 262.314 66.6795 262.584 69.2558 262.728C70.9901 262.818 72.7413 262.746 74.4757 262.746C74.4925 262.926 74.5094 263.088 74.5431 263.268Z" fill="white"/>
<path d="M74.3748 273.132C78.0455 272.358 81.7163 271.566 85.3871 270.792C85.606 270.738 85.8754 270.702 86.027 270.54C86.751 269.802 87.4246 269.046 88.115 268.29C87.3067 267.588 86.6163 266.58 85.707 266.238C80.9754 264.492 75.9913 264.726 71.0913 264.384C70.1651 264.312 69.2053 264.06 68.3297 264.24C67.2689 264.456 65.7703 264.78 65.3662 265.572C64.9115 266.472 65.1304 268.128 65.5851 269.172C66.6628 271.548 68.7844 272.466 71.1586 272.682C72.2026 272.772 73.2466 272.7 74.2906 272.7C74.3074 272.826 74.3411 272.988 74.3748 273.132Z" fill="white"/>
<path d="M84.6797 273.132C80.5038 273.474 76.5636 273.744 72.6402 274.122C71.091 274.284 70.7206 275.598 71.6972 277.128C73.0275 279.216 75.0986 280.026 77.2371 280.17C81.4635 280.458 85.589 279.684 89.2766 277.308C89.967 276.876 90.3206 275.85 90.8426 275.094C90.1017 274.608 89.3945 273.888 88.5862 273.672C87.2392 273.33 85.8247 273.294 84.6797 273.132Z" fill="white"/>
</svg>
